<svg width="224" height="35" viewBox="0 0 224 35" fill="none" xmlns="http://www.w3.org/2000/svg">
<path d="M13.8959 6H5.27086C5.14369 5.99978 5.02164 6.05009 4.93161 6.13993L0.139932 10.9316C0.0501335 11.0216 -0.000223861 11.1436 7.48156e-07 11.2708V26.6041C4.567e-05 27.9274 1.07269 29 2.39586 29H13.8959C15.219 29 16.2917 27.9274 16.2917 26.6042V8.39582C16.2917 7.07265 15.219 6 13.8959 6Z" fill="#9A9B9B" fill-opacity="0.5"/>
<path d="M4.31226 13.668H11.9789C12.7729 13.668 13.4165 14.3116 13.4165 15.1055V24.6888C13.4165 25.4827 12.7729 26.1263 11.9789 26.1263H4.31226C3.51835 26.1263 2.87476 25.4827 2.87476 24.6888V15.1055C2.87476 14.3116 3.51835 13.668 4.31226 13.668Z" fill="#FED101"/>
<path d="M13.4167 19.418H2.875V20.3763H13.4167V19.418Z" fill="#FF9944"/>
<path d="M6.22894 17.5013C5.9643 17.5013 5.74976 17.2868 5.74976 17.0222V14.1472C5.74976 13.8825 5.9643 13.668 6.22894 13.668C6.49357 13.668 6.70812 13.8825 6.70812 14.1472V17.0222C6.70812 17.2868 6.49357 17.5013 6.22894 17.5013Z" fill="#FF9944"/>
<path d="M8.14594 20.3763C7.8813 20.3763 7.66675 20.1618 7.66675 19.8972V17.0222C7.66675 16.7575 7.8813 16.543 8.14594 16.543C8.41058 16.543 8.62513 16.7575 8.62513 17.0222V19.8972C8.62513 20.1618 8.41058 20.3763 8.14594 20.3763Z" fill="#FF9944"/>
<path d="M10.0624 17.5013C9.7978 17.5013 9.58325 17.2868 9.58325 17.0222V14.1472C9.58325 13.8825 9.7978 13.668 10.0624 13.668C10.3271 13.668 10.5416 13.8825 10.5416 14.1472V17.0222C10.5416 17.2868 10.3271 17.5013 10.0624 17.5013Z" fill="#FF9944"/>
<path d="M8.14594 26.1263C7.8813 26.1263 7.66675 25.9118 7.66675 25.6472V22.7722C7.66675 22.5075 7.8813 22.293 8.14594 22.293C8.41058 22.293 8.62513 22.5075 8.62513 22.7722V25.6472C8.62513 25.9118 8.41058 26.1263 8.14594 26.1263Z" fill="#FF9944"/>
<path d="M6.22894 23.2513C5.9643 23.2513 5.74976 23.0368 5.74976 22.7722V19.8972C5.74976 19.6325 5.9643 19.418 6.22894 19.418C6.49357 19.418 6.70812 19.6325 6.70812 19.8972V22.7722C6.70812 23.0368 6.49357 23.2513 6.22894 23.2513Z" fill="#FF9944"/>
<path d="M10.0624 23.2513C9.7978 23.2513 9.58325 23.0368 9.58325 22.7722V19.8972C9.58325 19.6325 9.7978 19.418 10.0624 19.418C10.3271 19.418 10.5416 19.6325 10.5416 19.8972V22.7722C10.5416 23.0368 10.3271 23.2513 10.0624 23.2513Z" fill="#FF9944"/>
<path d="M34.0488 28H30.1387V12.3184H24.2461V8.39453H39.9277V12.3184H34.0488V28ZM46.0117 9.37891C46.0117 9.72526 45.9434 10.0488 45.8066 10.3496C45.679 10.6504 45.5013 10.9147 45.2734 11.1426C45.0456 11.3613 44.7767 11.5391 44.4668 11.6758C44.166 11.8034 43.8424 11.8672 43.4961 11.8672C43.1497 11.8672 42.8216 11.8034 42.5117 11.6758C42.2109 11.5391 41.9466 11.3613 41.7188 11.1426C41.5 10.9147 41.3223 10.6504 41.1855 10.3496C41.0579 10.0488 40.9941 9.72526 40.9941 9.37891C40.9941 9.04167 41.0579 8.72266 41.1855 8.42188C41.3223 8.11198 41.5 7.84766 41.7188 7.62891C41.9466 7.40104 42.2109 7.22331 42.5117 7.0957C42.8216 6.95898 43.1497 6.89062 43.4961 6.89062C43.8424 6.89062 44.166 6.95898 44.4668 7.0957C44.7767 7.22331 45.0456 7.40104 45.2734 7.62891C45.5013 7.84766 45.679 8.11198 45.8066 8.42188C45.9434 8.72266 46.0117 9.04167 46.0117 9.37891ZM45.3691 28H41.6094V13.3574H45.3691V28ZM54.0508 24.418C54.1966 24.4635 54.3424 24.4954 54.4883 24.5137C54.6341 24.5228 54.7799 24.5273 54.9258 24.5273C55.2904 24.5273 55.6413 24.4772 55.9785 24.377C56.3158 24.2767 56.6302 24.1354 56.9219 23.9531C57.2227 23.7617 57.487 23.5339 57.7148 23.2695C57.9518 22.9961 58.1432 22.6953 58.2891 22.3672L61.0234 25.1152C60.6771 25.6074 60.276 26.0495 59.8203 26.4414C59.3737 26.8333 58.8861 27.166 58.3574 27.4395C57.8379 27.7129 57.2865 27.918 56.7031 28.0547C56.1289 28.2005 55.5365 28.2734 54.9258 28.2734C53.8958 28.2734 52.9251 28.082 52.0137 27.6992C51.1113 27.3164 50.3184 26.7832 49.6348 26.0996C48.9603 25.416 48.4271 24.6048 48.0352 23.666C47.6432 22.7181 47.4473 21.679 47.4473 20.5488C47.4473 19.3913 47.6432 18.334 48.0352 17.377C48.4271 16.4199 48.9603 15.6042 49.6348 14.9297C50.3184 14.2552 51.1113 13.7311 52.0137 13.3574C52.9251 12.9837 53.8958 12.7969 54.9258 12.7969C55.5365 12.7969 56.1335 12.8698 56.7168 13.0156C57.3001 13.1615 57.8516 13.3711 58.3711 13.6445C58.8997 13.918 59.3919 14.2552 59.8477 14.6562C60.3034 15.0482 60.7044 15.4902 61.0508 15.9824L54.0508 24.418ZM55.9648 16.7207C55.7917 16.6569 55.6185 16.6159 55.4453 16.5977C55.2812 16.5794 55.1081 16.5703 54.9258 16.5703C54.4154 16.5703 53.9323 16.666 53.4766 16.8574C53.0299 17.0397 52.638 17.304 52.3008 17.6504C51.9727 17.9967 51.7129 18.416 51.5215 18.9082C51.3301 19.3913 51.2344 19.9382 51.2344 20.5488C51.2344 20.6855 51.2389 20.8405 51.248 21.0137C51.2663 21.1868 51.2891 21.3646 51.3164 21.5469C51.3529 21.7201 51.3939 21.8887 51.4395 22.0527C51.485 22.2168 51.5443 22.3626 51.6172 22.4902L55.9648 16.7207ZM50.4961 9.88477L54.1875 6.41211L57.9746 9.88477L56.4297 11.8398L54.2422 9.84375L52.1777 11.7852L50.4961 9.88477ZM66.6699 28H62.9375V13.3574H63.8398L65.0703 14.7793C65.6719 14.2324 66.3509 13.8132 67.1074 13.5215C67.873 13.2207 68.6706 13.0703 69.5 13.0703C70.3932 13.0703 71.2363 13.2435 72.0293 13.5898C72.8223 13.9271 73.515 14.3965 74.1074 14.998C74.6999 15.5905 75.1647 16.2878 75.502 17.0898C75.8483 17.8828 76.0215 18.7305 76.0215 19.6328V28H72.2891V19.6328C72.2891 19.25 72.2161 18.89 72.0703 18.5527C71.9245 18.2064 71.724 17.9056 71.4688 17.6504C71.2135 17.3952 70.9173 17.1947 70.5801 17.0488C70.2428 16.903 69.8828 16.8301 69.5 16.8301C69.1081 16.8301 68.7389 16.903 68.3926 17.0488C68.0462 17.1947 67.7454 17.3952 67.4902 17.6504C67.235 17.9056 67.0345 18.2064 66.8887 18.5527C66.7428 18.89 66.6699 19.25 66.6699 19.6328V28Z" fill="#172B4D"/>
<path d="M83.0078 12.3184V20.166H86.9316C87.4694 20.166 87.9753 20.0658 88.4492 19.8652C88.9232 19.6556 89.3379 19.373 89.6934 19.0176C90.0488 18.6621 90.3268 18.2474 90.5273 17.7734C90.737 17.2904 90.8418 16.7799 90.8418 16.2422C90.8418 15.7044 90.737 15.1986 90.5273 14.7246C90.3268 14.2415 90.0488 13.8223 89.6934 13.4668C89.3379 13.1113 88.9232 12.8333 88.4492 12.6328C87.9753 12.4232 87.4694 12.3184 86.9316 12.3184H83.0078ZM83.0078 28H79.084V8.39453H86.9316C87.6517 8.39453 88.3444 8.49023 89.0098 8.68164C89.6751 8.86393 90.2949 9.12826 90.8691 9.47461C91.4525 9.81185 91.9811 10.222 92.4551 10.7051C92.9382 11.179 93.3483 11.7077 93.6855 12.291C94.0319 12.8743 94.2962 13.4987 94.4785 14.1641C94.6699 14.8294 94.7656 15.5221 94.7656 16.2422C94.7656 17.3177 94.5605 18.334 94.1504 19.291C93.7402 20.2389 93.1797 21.0684 92.4688 21.7793C91.7578 22.4902 90.9238 23.0508 89.9668 23.4609C89.0189 23.8711 88.0072 24.0762 86.9316 24.0762H83.0078V28ZM100.412 28H96.6797V7.5332H100.412V14C100.859 13.6628 101.319 13.4258 101.793 13.2891C102.267 13.1432 102.75 13.0703 103.242 13.0703C104.145 13.0703 104.992 13.2435 105.785 13.5898C106.578 13.9271 107.266 14.3965 107.85 14.998C108.442 15.5905 108.907 16.2878 109.244 17.0898C109.59 17.8828 109.764 18.7305 109.764 19.6328V28H106.004V19.6328H106.031C106.031 19.25 105.958 18.89 105.812 18.5527C105.667 18.2064 105.466 17.9056 105.211 17.6504C104.956 17.3952 104.66 17.1947 104.322 17.0488C103.985 16.903 103.625 16.8301 103.242 16.8301C102.85 16.8301 102.481 16.903 102.135 17.0488C101.788 17.1947 101.488 17.3952 101.232 17.6504C100.977 17.9056 100.777 18.2064 100.631 18.5527C100.485 18.89 100.412 19.25 100.412 19.6328V28ZM126.58 20.5488C126.58 21.6426 126.384 22.6634 125.992 23.6113C125.6 24.5501 125.067 25.3659 124.393 26.0586C123.718 26.7422 122.925 27.2845 122.014 27.6855C121.111 28.0775 120.141 28.2734 119.102 28.2734C118.072 28.2734 117.101 28.0775 116.189 27.6855C115.287 27.2845 114.494 26.7422 113.811 26.0586C113.136 25.3659 112.603 24.5501 112.211 23.6113C111.819 22.6634 111.623 21.6426 111.623 20.5488C111.623 19.4368 111.819 18.4069 112.211 17.459C112.603 16.5111 113.136 15.6953 113.811 15.0117C114.494 14.319 115.287 13.7767 116.189 13.3848C117.101 12.9928 118.072 12.7969 119.102 12.7969C120.141 12.7969 121.111 12.9837 122.014 13.3574C122.925 13.722 123.718 14.2461 124.393 14.9297C125.067 15.6042 125.6 16.4199 125.992 17.377C126.384 18.3249 126.58 19.3822 126.58 20.5488ZM122.82 20.5488C122.82 19.9473 122.72 19.4049 122.52 18.9219C122.328 18.4297 122.064 18.0104 121.727 17.6641C121.389 17.3086 120.993 17.0397 120.537 16.8574C120.09 16.666 119.612 16.5703 119.102 16.5703C118.591 16.5703 118.108 16.666 117.652 16.8574C117.206 17.0397 116.814 17.3086 116.477 17.6641C116.148 18.0104 115.889 18.4297 115.697 18.9219C115.506 19.4049 115.41 19.9473 115.41 20.5488C115.41 21.1139 115.506 21.638 115.697 22.1211C115.889 22.6042 116.148 23.0234 116.477 23.3789C116.814 23.7344 117.206 24.0169 117.652 24.2266C118.108 24.4271 118.591 24.5273 119.102 24.5273C119.612 24.5273 120.09 24.4316 120.537 24.2402C120.993 24.0488 121.389 23.7799 121.727 23.4336C122.064 23.0872 122.328 22.668 122.52 22.1758C122.72 21.6836 122.82 21.1413 122.82 20.5488ZM132.377 28H128.645V13.3574H129.547L130.777 14.7793C131.379 14.2324 132.058 13.8132 132.814 13.5215C133.58 13.2207 134.378 13.0703 135.207 13.0703C136.1 13.0703 136.943 13.2435 137.736 13.5898C138.529 13.9271 139.222 14.3965 139.814 14.998C140.407 15.5905 140.872 16.2878 141.209 17.0898C141.555 17.8828 141.729 18.7305 141.729 19.6328V28H137.996V19.6328C137.996 19.25 137.923 18.89 137.777 18.5527C137.632 18.2064 137.431 17.9056 137.176 17.6504C136.921 17.3952 136.624 17.1947 136.287 17.0488C135.95 16.903 135.59 16.8301 135.207 16.8301C134.815 16.8301 134.446 16.903 134.1 17.0488C133.753 17.1947 133.452 17.3952 133.197 17.6504C132.942 17.9056 132.742 18.2064 132.596 18.5527C132.45 18.89 132.377 19.25 132.377 19.6328V28ZM154.812 20.5488C154.812 20.0384 154.712 19.5462 154.512 19.0723C154.32 18.5892 154.056 18.1654 153.719 17.8008C153.382 17.4271 152.985 17.1309 152.529 16.9121C152.083 16.6842 151.604 16.5703 151.094 16.5703C150.583 16.5703 150.1 16.6569 149.645 16.8301C149.198 17.0033 148.806 17.2585 148.469 17.5957C148.141 17.9329 147.881 18.3522 147.689 18.8535C147.498 19.3457 147.402 19.9108 147.402 20.5488C147.402 21.1595 147.498 21.7109 147.689 22.2031C147.881 22.6862 148.141 23.1009 148.469 23.4473C148.806 23.7936 149.198 24.0625 149.645 24.2539C150.1 24.4362 150.583 24.5273 151.094 24.5273C151.604 24.5273 152.083 24.418 152.529 24.1992C152.985 23.9714 153.382 23.6751 153.719 23.3105C154.056 22.9368 154.32 22.513 154.512 22.0391C154.712 21.556 154.812 21.0592 154.812 20.5488ZM158.572 26.1543C158.572 27.1842 158.376 28.1504 157.984 29.0527C157.592 29.9551 157.055 30.7435 156.371 31.418C155.697 32.0924 154.904 32.6257 153.992 33.0176C153.09 33.4095 152.124 33.6055 151.094 33.6055L149.221 33.5781V29.8457L151.066 29.873C151.65 29.873 152.146 29.7956 152.557 29.6406C152.967 29.4948 153.313 29.2897 153.596 29.0254C153.878 28.7702 154.102 28.474 154.266 28.1367C154.439 27.7995 154.576 27.444 154.676 27.0703C154.53 27.3073 154.32 27.5033 154.047 27.6582C153.773 27.804 153.468 27.9225 153.131 28.0137C152.803 28.1139 152.456 28.1823 152.092 28.2188C151.736 28.2552 151.404 28.2734 151.094 28.2734C150.064 28.2734 149.093 28.0957 148.182 27.7402C147.279 27.3848 146.486 26.8789 145.803 26.2227C145.128 25.5573 144.595 24.7461 144.203 23.7891C143.811 22.832 143.615 21.752 143.615 20.5488C143.615 19.446 143.811 18.4206 144.203 17.4727C144.595 16.5247 145.128 15.7044 145.803 15.0117C146.486 14.319 147.279 13.7767 148.182 13.3848C149.093 12.9928 150.064 12.7969 151.094 12.7969C151.568 12.7969 152.037 12.8561 152.502 12.9746C152.967 13.0931 153.418 13.2572 153.855 13.4668C154.293 13.6764 154.708 13.9225 155.1 14.2051C155.501 14.4876 155.874 14.793 156.221 15.1211L157.67 13.3848H158.572V26.1543Z" fill="#78CCFE"/>
</svg>
