<svg width="16" height="24" viewBox="0 0 16 24" fill="none" xmlns="http://www.w3.org/2000/svg">
<path opacity="0.4" d="M14.9098 19.2299C15.2454 19.5672 15.4339 20.0237 15.4339 20.4995C15.4339 20.9753 15.2454 21.4318 14.9098 21.7691L13.2218 23.4713L13.2083 23.4848C12.8724 23.8171 12.4182 24.0024 11.9457 23.9999C11.4732 23.9973 11.021 23.8072 10.6887 23.4713L3.47852 16.2349L7.71312 11.998L14.9098 19.2299Z" fill="black"/>
<path d="M10.7091 0.515167L10.6963 0.528664L0.533116 10.7234C0.194161 11.0591 0.00241311 11.5158 2.26206e-05 11.9929C-0.00236787 12.47 0.184795 12.9286 0.520368 13.2677L0.524868 13.273L3.47867 16.2358L14.9227 4.77377C15.0894 4.60719 15.2216 4.40939 15.3118 4.19168C15.4021 3.97398 15.4485 3.74062 15.4485 3.50496C15.4485 3.2693 15.4021 3.03595 15.3118 2.81824C15.2216 2.60053 15.0894 2.40273 14.9227 2.23615L13.2324 0.530914C13.068 0.364212 12.8724 0.231527 12.6567 0.140439C12.4411 0.0493506 12.2096 0.00164335 11.9754 4.17132e-05C11.7413 -0.00155992 11.5092 0.0429758 11.2923 0.131105C11.0754 0.219234 10.878 0.349229 10.7113 0.513666L10.7091 0.515167Z" fill="black"/>
</svg>
