<svg width="15" height="24" viewBox="0 0 15 24" fill="none" xmlns="http://www.w3.org/2000/svg">
<g clip-path="url(#clip0)">
<path opacity="0.4" d="M10.4774 1.13391C10.477 1.22885 10.4646 1.32336 10.4405 1.41516L8.44789 7.5L6.67515 13.5H1.12258C0.824854 13.5 0.539321 13.3815 0.328796 13.1705C0.118272 12.9595 5.32469e-09 12.6734 5.32469e-09 12.375C-4.82477e-06 12.3248 0.00327642 12.2747 0.00982259 12.225L1.5066 0.975C1.54284 0.705012 1.67561 0.457375 1.88026 0.278065C2.0849 0.0987539 2.34752 -4.86766e-05 2.61935 1.79907e-08H9.35484C9.50285 0.000552903 9.6493 0.0303244 9.78583 0.0876137C9.92236 0.144903 10.0463 0.228588 10.1505 0.333887C10.2548 0.439186 10.3373 0.564037 10.3934 0.701307C10.4495 0.838576 10.478 0.985576 10.4774 1.13391V1.13391Z" fill="#00DFCD"/>
<path d="M14.9645 8.62828C14.9641 8.82469 14.9121 9.01752 14.8139 9.1875L6.58167 23.4375C6.44608 23.6694 6.2321 23.8451 5.97847 23.9326C5.72484 24.0201 5.44833 24.0137 5.199 23.9145C4.94968 23.8154 4.74402 23.63 4.61927 23.392C4.49452 23.1541 4.45892 22.8792 4.51893 22.6172L6.67522 13.5L8.44796 7.5H13.8452C13.9926 7.50043 14.1385 7.52996 14.2746 7.58689C14.4106 7.64382 14.5341 7.72705 14.6381 7.83182C14.742 7.93659 14.8243 8.06086 14.8803 8.19751C14.9364 8.33417 14.965 8.48054 14.9645 8.62828Z" fill="#FF686A"/>
</g>
<defs>
<clipPath id="clip0">
<rect width="14.9677" height="24" fill="white"/>
</clipPath>
</defs>
</svg>
