<svg width="15" height="24" viewBox="0 0 15 24" fill="none" xmlns="http://www.w3.org/2000/svg">
<path opacity="0.4" d="M13.9565 20.4569C14.2003 20.7072 14.3373 21.0467 14.3373 21.4007C14.3373 21.7547 14.2003 22.0942 13.9565 22.3445L12.723 23.608C12.4784 23.859 12.1467 24.0001 11.8008 24.0001C11.4549 24.0001 11.1232 23.859 10.8786 23.608L2.49316 15.0176L5.57867 11.8442L13.9565 20.4569Z" fill="black"/>
<path d="M12.7302 0.39055L13.9585 1.64907C14.2013 1.89842 14.3377 2.23659 14.3377 2.58921C14.3377 2.94182 14.2013 3.27999 13.9585 3.52934L2.54328 15.2727L0.378959 13.0502C0.136303 12.8008 0 12.4626 0 12.11C0 11.7575 0.136303 11.4193 0.378959 11.1699L10.8938 0.39055C11.1373 0.140484 11.4676 0 11.812 0C12.1564 0 12.4867 0.140484 12.7302 0.39055V0.39055Z" fill="black"/>
</svg>
