<svg width="24" height="24" viewBox="0 0 24 24" fill="none" xmlns="http://www.w3.org/2000/svg">
<path opacity="0.4" d="M12 0.375C5.57812 0.375 0.375 5.57812 0.375 12C0.375 18.4219 5.57812 23.625 12 23.625C18.4219 23.625 23.625 18.4219 23.625 12C23.625 5.57812 18.4219 0.375 12 0.375ZM15.3984 16.7625C15.5032 16.8666 15.5863 16.9904 15.643 17.1268C15.6997 17.2631 15.7289 17.4093 15.7289 17.557C15.7289 17.7047 15.6997 17.8509 15.643 17.9873C15.5863 18.1237 15.5032 18.2474 15.3984 18.3516L14.6016 19.1484C14.4974 19.2532 14.3737 19.3363 14.2373 19.393C14.1009 19.4497 13.9547 19.4789 13.807 19.4789C13.6593 19.4789 13.5131 19.4497 13.3768 19.393C13.2404 19.3363 13.1166 19.2532 13.0125 19.1484L6.66094 12.7969C6.55606 12.6924 6.47284 12.5682 6.41606 12.4314C6.35928 12.2947 6.33005 12.1481 6.33005 12C6.33005 11.8519 6.35928 11.7053 6.41606 11.5686C6.47284 11.4318 6.55606 11.3076 6.66094 11.2031L13.0125 4.85156C13.1166 4.74683 13.2404 4.66371 13.3768 4.60699C13.5131 4.55027 13.6593 4.52107 13.807 4.52107C13.9547 4.52107 14.1009 4.55027 14.2373 4.60699C14.3737 4.66371 14.4974 4.74683 14.6016 4.85156L15.3984 5.64844C15.5032 5.75255 15.5863 5.87635 15.643 6.01271C15.6997 6.14906 15.7289 6.29529 15.7289 6.44297C15.7289 6.59065 15.6997 6.73688 15.643 6.87323C15.5863 7.00959 15.5032 7.13338 15.3984 7.2375L10.6359 12L15.3984 16.7625Z" fill="#9A9B9B"/>
<path d="M6.66097 11.2035L13.0125 4.85197C13.1166 4.74724 13.2404 4.66412 13.3768 4.6074C13.5132 4.55068 13.6594 4.52148 13.8071 4.52148C13.9547 4.52148 14.101 4.55068 14.2373 4.6074C14.3737 4.66412 14.4975 4.74724 14.6016 4.85197L15.3985 5.64885C15.5032 5.75297 15.5863 5.87676 15.643 6.01312C15.6998 6.14947 15.729 6.2957 15.729 6.44338C15.729 6.59106 15.6998 6.73729 15.643 6.87364C15.5863 7.01 15.5032 7.1338 15.3985 7.23791L10.636 12.0004L15.3985 16.7629C15.5032 16.867 15.5863 16.9908 15.643 17.1272C15.6998 17.2635 15.729 17.4098 15.729 17.5574C15.729 17.7051 15.6998 17.8513 15.643 17.9877C15.5863 18.1241 15.5032 18.2479 15.3985 18.352L14.6016 19.1488C14.4975 19.2536 14.3737 19.3367 14.2373 19.3934C14.101 19.4501 13.9547 19.4793 13.8071 19.4793C13.6594 19.4793 13.5132 19.4501 13.3768 19.3934C13.2404 19.3367 13.1166 19.2536 13.0125 19.1488L6.66097 12.7973C6.55609 12.6928 6.47287 12.5686 6.41609 12.4318C6.35931 12.2951 6.33008 12.1485 6.33008 12.0004C6.33008 11.8523 6.35931 11.7057 6.41609 11.569C6.47287 11.4322 6.55609 11.3081 6.66097 11.2035V11.2035Z" fill="#0C0E16"/>
</svg>
