<svg width="24" height="20" viewBox="0 0 24 20" fill="none" xmlns="http://www.w3.org/2000/svg">
<g clip-path="url(#clip0)">
<path opacity="0.4" d="M20.3996 17.3156V18.5098C20.3996 18.6681 20.3364 18.82 20.2239 18.932C20.1114 19.0439 19.9587 19.1069 19.7996 19.1069H4.19961C4.04048 19.1069 3.88787 19.0439 3.77535 18.932C3.66282 18.82 3.59961 18.6681 3.59961 18.5098V17.3156C3.59961 17.1572 3.66282 17.0054 3.77535 16.8934C3.88787 16.7814 4.04048 16.7185 4.19961 16.7185H19.7996C19.9587 16.7185 20.1114 16.7814 20.2239 16.8934C20.3364 17.0054 20.3996 17.1572 20.3996 17.3156Z" fill="black"/>
<path d="M24.0007 6.56792C24.0007 7.04299 23.8111 7.4986 23.4735 7.83453C23.1359 8.17046 22.6781 8.35918 22.2007 8.35918C22.1038 8.35682 22.0073 8.34684 21.912 8.32933L19.2007 15.5242H4.80071L2.08946 8.32933C1.99415 8.34684 1.8976 8.35682 1.80071 8.35918C1.40835 8.36126 1.0259 8.23665 0.710745 8.00406C0.395594 7.77146 0.164747 7.44343 0.0528502 7.06918C-0.0590468 6.69494 -0.0459577 6.29468 0.0901529 5.92846C0.226263 5.56225 0.478053 5.24984 0.807733 5.03813C1.13741 4.82642 1.5272 4.72682 1.91859 4.75428C2.30998 4.78174 2.68187 4.93479 2.97843 5.19044C3.275 5.4461 3.48025 5.79057 3.56337 6.17217C3.6465 6.55377 3.60302 6.9519 3.43946 7.30681L6.15071 8.92641C6.28769 9.00786 6.43962 9.0613 6.5976 9.08361C6.75559 9.10591 6.91646 9.09664 7.0708 9.05633C7.22514 9.01602 7.36986 8.94549 7.49648 8.84885C7.62309 8.75221 7.72907 8.63141 7.80821 8.49352L10.8645 3.17198C10.5762 2.93849 10.3676 2.62191 10.2674 2.26572C10.1672 1.90953 10.1802 1.5312 10.3047 1.18268C10.4292 0.834164 10.6591 0.532548 10.9628 0.319256C11.2664 0.105964 11.629 -0.00854492 12.0007 -0.00854492C12.3724 -0.00854492 12.735 0.105964 13.0387 0.319256C13.3423 0.532548 13.5722 0.834164 13.6967 1.18268C13.8212 1.5312 13.8343 1.90953 13.734 2.26572C13.6338 2.62191 13.4252 2.93849 13.137 3.17198L16.1932 8.49352C16.2723 8.63141 16.3783 8.75221 16.5049 8.84885C16.6316 8.94549 16.7763 9.01602 16.9306 9.05633C17.085 9.09664 17.2458 9.10591 17.4038 9.08361C17.5618 9.0613 17.7137 9.00786 17.8507 8.92641L20.5657 7.30681C20.4573 7.0754 20.401 6.82323 20.4007 6.56792C20.4007 6.09285 20.5904 5.63723 20.9279 5.3013C21.2655 4.96538 21.7233 4.77666 22.2007 4.77666C22.6781 4.77666 23.1359 4.96538 23.4735 5.3013C23.8111 5.63723 24.0007 6.09285 24.0007 6.56792V6.56792Z" fill="black"/>
</g>
<defs>
<clipPath id="clip0">
<rect width="24" height="19.1068" fill="white"/>
</clipPath>
</defs>
</svg>
