<svg width="24" height="24" viewBox="0 0 24 24" fill="none" xmlns="http://www.w3.org/2000/svg">
<g clip-path="url(#clip0)">
<path d="M5.31891 14.5046L4.4835 17.6233L1.43011 17.6879C0.517594 15.9954 0 14.0589 0 12.0011C0 10.0112 0.483938 8.13472 1.34175 6.48242H1.34241L4.06078 6.9808L5.25159 9.68286C5.00236 10.4095 4.86652 11.1895 4.86652 12.0011C4.86661 12.882 5.02617 13.726 5.31891 14.5046Z" fill="#FBBB00"/>
<path d="M23.7904 9.75781C23.9282 10.4837 24.0001 11.2334 24.0001 11.9996C24.0001 12.8587 23.9098 13.6967 23.7377 14.5051C23.1535 17.2558 21.6272 19.6578 19.5127 21.3576L19.512 21.3569L16.0881 21.1822L15.6035 18.1572C17.0065 17.3343 18.103 16.0466 18.6806 14.5051H12.2639V9.75781H18.7742H23.7904Z" fill="#518EF8"/>
<path d="M19.5119 21.3577L19.5126 21.3584C17.4561 23.0113 14.8438 24.0004 12.0001 24.0004C7.43018 24.0004 3.457 21.4461 1.43018 17.6872L5.31897 14.5039C6.33236 17.2085 8.94138 19.1338 12.0001 19.1338C13.3148 19.1338 14.5465 18.7784 15.6033 18.158L19.5119 21.3577Z" fill="#28B446"/>
<path d="M19.6596 2.76263L15.7721 5.94525C14.6783 5.26153 13.3853 4.86656 12 4.86656C8.87213 4.86656 6.21431 6.88017 5.25169 9.68175L1.34245 6.48131H1.3418C3.33895 2.63077 7.36223 0 12 0C14.9117 0 17.5814 1.03716 19.6596 2.76263Z" fill="#F14336"/>
</g>
<defs>
<clipPath id="clip0">
<rect width="24" height="24" fill="white"/>
</clipPath>
</defs>
</svg>
