<svg width="15" height="24" viewBox="0 0 15 24" fill="none" xmlns="http://www.w3.org/2000/svg">
<g clip-path="url(#clip0)">
<path opacity="0.4" d="M12.75 0H2.25C1.65326 0 1.08097 0.237053 0.65901 0.65901C0.237053 1.08097 0 1.65326 0 2.25L0 21.75C0 22.3467 0.237053 22.919 0.65901 23.341C1.08097 23.7629 1.65326 24 2.25 24H12.75C13.3467 24 13.919 23.7629 14.341 23.341C14.7629 22.919 15 22.3467 15 21.75V2.25C15 1.65326 14.7629 1.08097 14.341 0.65901C13.919 0.237053 13.3467 0 12.75 0V0ZM7.5 22.5C7.20333 22.5 6.91332 22.412 6.66664 22.2472C6.41997 22.0824 6.22771 21.8481 6.11418 21.574C6.00065 21.2999 5.97094 20.9983 6.02882 20.7074C6.0867 20.4164 6.22956 20.1491 6.43934 19.9393C6.64912 19.7296 6.91639 19.5867 7.20736 19.5288C7.49834 19.4709 7.79994 19.5006 8.07402 19.6142C8.34811 19.7277 8.58238 19.92 8.7472 20.1666C8.91203 20.4133 9 20.7033 9 21C9 21.3978 8.84196 21.7794 8.56066 22.0607C8.27936 22.342 7.89782 22.5 7.5 22.5ZM12.75 17.4375C12.75 17.5867 12.6907 17.7298 12.5852 17.8352C12.4798 17.9407 12.3367 18 12.1875 18H2.8125C2.66332 18 2.52024 17.9407 2.41475 17.8352C2.30926 17.7298 2.25 17.5867 2.25 17.4375V2.8125C2.25 2.66332 2.30926 2.52024 2.41475 2.41475C2.52024 2.30926 2.66332 2.25 2.8125 2.25H12.1875C12.3367 2.25 12.4798 2.30926 12.5852 2.41475C12.6907 2.52024 12.75 2.66332 12.75 2.8125V17.4375Z" fill="#0C0E16" fill-opacity="0.5"/>
<path d="M12.75 17.4375C12.75 17.5867 12.6907 17.7298 12.5852 17.8352C12.4798 17.9407 12.3367 18 12.1875 18H2.8125C2.66332 18 2.52024 17.9407 2.41475 17.8352C2.30926 17.7298 2.25 17.5867 2.25 17.4375V2.8125C2.25 2.66332 2.30926 2.52024 2.41475 2.41475C2.52024 2.30926 2.66332 2.25 2.8125 2.25H12.1875C12.3367 2.25 12.4798 2.30926 12.5852 2.41475C12.6907 2.52024 12.75 2.66332 12.75 2.8125V17.4375Z" fill="#0C0E16" fill-opacity="0.5"/>
</g>
<defs>
<clipPath id="clip0">
<rect width="15" height="24" fill="white"/>
</clipPath>
</defs>
</svg>
