<svg width="24" height="24" viewBox="0 0 24 24" fill="none" xmlns="http://www.w3.org/2000/svg">
<path opacity="0.4" d="M19.8122 19.8122C19.8646 19.8645 19.9062 19.9266 19.9346 19.9949C19.963 20.0633 19.9776 20.1366 19.9776 20.2106C19.9776 20.2847 19.963 20.358 19.9346 20.4264C19.9062 20.4947 19.8646 20.5568 19.8122 20.6091L19.7892 20.6306C17.655 22.5618 14.8783 23.6293 12 23.625C5.57812 23.625 0.375 18.4219 0.375 12C0.375 5.58705 5.60859 0.363768 12.0216 0.375018C15.0062 0.376478 17.8751 1.52992 20.0302 3.59486L17.3761 6.24611C15.9385 4.89461 14.0429 4.13688 12.0698 4.12502C7.73859 4.08799 4.08797 7.59377 4.125 12.068C4.16062 16.3125 7.60219 19.875 12 19.875C13.9084 19.8804 15.7529 19.1875 17.1858 17.9269C17.2932 17.8332 17.4322 17.7839 17.5746 17.7887C17.7171 17.7936 17.8523 17.8524 17.9531 17.9531L19.8122 19.8122Z" fill="#9A9B9B"/>
<path d="M23.6251 2.71469V8.99875C23.6251 9.29712 23.5066 9.58327 23.2956 9.79425C23.0846 10.0052 22.7985 10.1238 22.5001 10.1238H16.2161C15.2139 10.1238 14.7118 8.91203 15.4192 8.20188L21.7032 1.92063C22.4134 1.21047 23.6251 1.7125 23.6251 2.71469Z" fill="#0C0E16" fill-opacity="0.5"/>
</svg>
