<svg width="24" height="24" viewBox="0 0 24 24" fill="none" xmlns="http://www.w3.org/2000/svg">
<g clip-path="url(#clip0)">
<path opacity="0.4" d="M9.75 3.75C11.1381 3.75001 12.4833 4.23133 13.5564 5.11196C14.6294 5.99258 15.3639 7.21803 15.6347 8.57949C15.9055 9.94095 15.6958 11.3542 15.0415 12.5784C14.3871 13.8026 13.3285 14.7621 12.046 15.2933C10.7636 15.8245 9.33659 15.8946 8.00824 15.4916C6.67988 15.0887 5.53234 14.2376 4.76114 13.0834C3.98994 11.9292 3.6428 10.5433 3.77886 9.16187C3.91493 7.78043 4.52578 6.4889 5.50734 5.50734C6.06318 4.94842 6.72437 4.50531 7.45263 4.20366C8.18088 3.90201 8.96174 3.74781 9.75 3.75V3.75ZM9.75 0C4.365 0 0 4.365 0 9.75C0 15.135 4.365 19.5 9.75 19.5C15.135 19.5 19.5 15.135 19.5 9.75C19.5 4.365 15.135 0 9.75 0Z" fill="black"/>
<path d="M23.6672 22.3453L22.3406 23.6719C22.2365 23.7766 22.1127 23.8597 21.9764 23.9165C21.84 23.9732 21.6938 24.0024 21.5461 24.0024C21.3984 24.0024 21.2522 23.9732 21.1158 23.9165C20.9795 23.8597 20.8557 23.7766 20.7516 23.6719L16.0781 18.9984C15.9737 18.8937 15.891 18.7694 15.8347 18.6327C15.7784 18.4959 15.7496 18.3494 15.75 18.2016V17.4375L17.4375 15.75H18.2016C18.3494 15.7496 18.4959 15.7784 18.6327 15.8347C18.7694 15.891 18.8937 15.9737 18.9984 16.0781L23.6719 20.7516C23.8818 20.9639 23.9992 21.2508 23.9983 21.5494C23.9974 21.848 23.8784 22.1342 23.6672 22.3453V22.3453Z" fill="black"/>
</g>
<defs>
<clipPath id="clip0">
<rect width="24" height="24" fill="white"/>
</clipPath>
</defs>
</svg>
