<svg width="24" height="20" viewBox="0 0 24 20" fill="none" xmlns="http://www.w3.org/2000/svg">
<g clip-path="url(#clip0)">
<path opacity="0.4" d="M9.3 5.99961H1.5C1.42044 5.99961 1.34413 6.03122 1.28787 6.08748C1.23161 6.14374 1.2 6.22004 1.2 6.29961V6.89961C1.2 6.97917 1.23161 7.05548 1.28787 7.11174C1.34413 7.168 1.42044 7.19961 1.5 7.19961H9.3C9.37957 7.19961 9.45587 7.168 9.51213 7.11174C9.56839 7.05548 9.6 6.97917 9.6 6.89961V6.29961C9.6 6.22004 9.56839 6.14374 9.51213 6.08748C9.45587 6.03122 9.37957 5.99961 9.3 5.99961ZM8.4 9.29961V8.69961C8.4 8.62004 8.36839 8.54374 8.31213 8.48748C8.25587 8.43122 8.17957 8.39961 8.1 8.39961H0.3C0.220435 8.39961 0.144129 8.43122 0.087868 8.48748C0.0316071 8.54374 0 8.62004 0 8.69961L0 9.29961C0 9.37917 0.0316071 9.45548 0.087868 9.51174C0.144129 9.568 0.220435 9.59961 0.3 9.59961H8.1C8.17957 9.59961 8.25587 9.568 8.31213 9.51174C8.36839 9.45548 8.4 9.37917 8.4 9.29961ZM6.6 13.1996C6.00666 13.1996 5.42664 13.3756 4.93329 13.7052C4.43994 14.0348 4.05542 14.5034 3.82836 15.0516C3.6013 15.5997 3.54189 16.2029 3.65764 16.7849C3.7734 17.3668 4.05912 17.9014 4.47868 18.3209C4.89824 18.7405 5.43279 19.0262 6.01473 19.142C6.59667 19.2577 7.19987 19.1983 7.74805 18.9712C8.29623 18.7442 8.76476 18.3597 9.09441 17.8663C9.42405 17.373 9.6 16.793 9.6 16.1996C9.6 15.404 9.28393 14.6409 8.72132 14.0783C8.15871 13.5157 7.39565 13.1996 6.6 13.1996ZM17.4 13.1996C16.8067 13.1996 16.2266 13.3756 15.7333 13.7052C15.2399 14.0348 14.8554 14.5034 14.6284 15.0516C14.4013 15.5997 14.3419 16.2029 14.4576 16.7849C14.5734 17.3668 14.8591 17.9014 15.2787 18.3209C15.6982 18.7405 16.2328 19.0262 16.8147 19.142C17.3967 19.2577 17.9999 19.1983 18.5481 18.9712C19.0962 18.7442 19.5648 18.3597 19.8944 17.8663C20.2241 17.373 20.4 16.793 20.4 16.1996C20.4 15.404 20.0839 14.6409 19.5213 14.0783C18.9587 13.5157 18.1957 13.1996 17.4 13.1996V13.1996ZM10.5 3.59961H0.3C0.220435 3.59961 0.144129 3.63122 0.087868 3.68748C0.0316071 3.74374 0 3.82004 0 3.89961L0 4.49961C0 4.57917 0.0316071 4.65548 0.087868 4.71174C0.144129 4.768 0.220435 4.79961 0.3 4.79961H10.5C10.5796 4.79961 10.6559 4.768 10.7121 4.71174C10.7684 4.65548 10.8 4.57917 10.8 4.49961V3.89961C10.8 3.82004 10.7684 3.74374 10.7121 3.68748C10.6559 3.63122 10.5796 3.59961 10.5 3.59961Z" fill="#9A9B9B"/>
<path d="M23.3999 13.2H22.7999V9.14625C22.7991 8.66917 22.6089 8.21194 22.2712 7.875L18.5249 4.12875C18.188 3.791 17.7307 3.60082 17.2537 3.6H15.5999V1.8C15.5999 1.32261 15.4103 0.864773 15.0727 0.527208C14.7351 0.189642 14.2773 0 13.7999 0L4.19991 0C3.72252 0 3.26468 0.189642 2.92712 0.527208C2.58955 0.864773 2.39991 1.32261 2.39991 1.8V3.6H10.4999C10.5795 3.6 10.6558 3.63161 10.712 3.68787C10.7683 3.74413 10.7999 3.82044 10.7999 3.9V4.5C10.7999 4.57957 10.7683 4.65587 10.712 4.71213C10.6558 4.76839 10.5795 4.8 10.4999 4.8H2.39991V6H9.29991C9.37947 6 9.45578 6.03161 9.51204 6.08787C9.5683 6.14413 9.59991 6.22044 9.59991 6.3V6.9C9.59991 6.97957 9.5683 7.05587 9.51204 7.11213C9.45578 7.16839 9.37947 7.2 9.29991 7.2H2.39991V8.4H8.09991C8.17947 8.4 8.25578 8.43161 8.31204 8.48787C8.3683 8.54413 8.39991 8.62044 8.39991 8.7V9.3C8.39991 9.37957 8.3683 9.45587 8.31204 9.51213C8.25578 9.56839 8.17947 9.6 8.09991 9.6H2.39991V13.8C2.39913 14.1307 2.48999 14.4552 2.66241 14.7375C2.98722 13.8622 3.59443 13.12 4.3881 12.6283C5.18177 12.1366 6.11665 11.9234 7.04504 12.0223C7.97342 12.1212 8.84239 12.5267 9.51463 13.1746C10.1869 13.8225 10.6241 14.6759 10.7572 15.6H13.2427C13.3864 14.5999 13.8859 13.6852 14.6495 13.0236C15.4131 12.3619 16.3896 11.9977 17.3999 11.9977C18.4103 11.9977 19.3868 12.3619 20.1503 13.0236C20.9139 13.6852 21.4134 14.5999 21.5572 15.6H23.3999C23.559 15.6 23.7117 15.5368 23.8242 15.4243C23.9367 15.3117 23.9999 15.1591 23.9999 15V13.8C23.9999 13.6409 23.9367 13.4883 23.8242 13.3757C23.7117 13.2632 23.559 13.2 23.3999 13.2ZM20.9999 9.6H15.5999V5.4H17.2537L20.9999 9.14625V9.6Z" fill="#0C0E16" fill-opacity="0.5"/>
</g>
<defs>
<clipPath id="clip0">
<rect width="24" height="19.2" fill="white"/>
</clipPath>
</defs>
</svg>
