<svg width="19" height="24" viewBox="0 0 19 24" fill="none" xmlns="http://www.w3.org/2000/svg">
<g clip-path="url(#clip0)">
<path opacity="0.4" d="M6.02348 9H4.5176C4.11822 9 3.73519 9.15804 3.45278 9.43934C3.17037 9.72064 3.01172 10.1022 3.01172 10.5V12H6.02348V9ZM3.01172 19.5C3.01172 19.8978 3.17037 20.2794 3.45278 20.5607C3.73519 20.842 4.11822 21 4.5176 21H6.02348V18H3.01172V19.5ZM10.5411 9H7.52937V12H10.5411V9ZM12.047 21H13.5529C13.9523 21 14.3353 20.842 14.6177 20.5607C14.9001 20.2794 15.0588 19.8978 15.0588 19.5V18H12.047V21ZM7.52937 21H10.5411V18H7.52937V21ZM13.5529 9H12.047V12H15.0588V10.5C15.0588 10.1022 14.9001 9.72064 14.6177 9.43934C14.3353 9.15804 13.9523 9 13.5529 9ZM3.01172 16.5H15.0588V13.5H3.01172V16.5Z" fill="#0C0E16" fill-opacity="0.5"/>
<path d="M12.0471 0H3.01176C2.21322 0.00074466 1.4476 0.317054 0.882951 0.879502C0.318298 1.44195 0.000747581 2.20458 0 3V21C0.000747581 21.7954 0.318298 22.558 0.882951 23.1205C1.4476 23.6829 2.21322 23.9993 3.01176 24H15.0588C15.8574 23.9993 16.623 23.6829 17.1876 23.1205C17.7523 22.558 18.0698 21.7954 18.0706 21V6L12.0471 0ZM15.0588 19.5C15.0588 19.8978 14.9002 20.2794 14.6178 20.5607C14.3354 20.842 13.9523 21 13.5529 21H4.51765C4.11826 21 3.73524 20.842 3.45283 20.5607C3.17042 20.2794 3.01176 19.8978 3.01176 19.5V10.5C3.01176 10.1022 3.17042 9.72064 3.45283 9.43934C3.73524 9.15804 4.11826 9 4.51765 9H13.5529C13.9523 9 14.3354 9.15804 14.6178 9.43934C14.9002 9.72064 15.0588 10.1022 15.0588 10.5V19.5Z" fill="#0C0E16" fill-opacity="0.5"/>
</g>
<defs>
<clipPath id="clip0">
<rect width="18.0706" height="24" fill="white"/>
</clipPath>
</defs>
</svg>
