<svg width="17" height="24" viewBox="0 0 17 24" fill="none" xmlns="http://www.w3.org/2000/svg">
<path d="M14.5 7.81376e-07H5.50003C5.36733 -0.000233594 5.23997 0.0522664 5.14603 0.146016L0.146016 5.14599C0.0523132 5.23992 -0.000233594 5.36728 7.80685e-07 5.49999V21.5C4.76557e-05 22.8807 1.11933 24 2.50003 24H14.5C15.8807 24 17 22.8807 17 21.5V2.49999C17 1.11928 15.8807 7.81376e-07 14.5 7.81376e-07Z" fill="#9A9B9B" fill-opacity="0.5"/>
<path d="M4.5 8H12.5C13.3285 8 14 8.67158 14 9.5V19.5C14 20.3284 13.3285 21 12.5 21H4.5C3.67158 21 3 20.3284 3 19.5V9.5C3 8.67158 3.67158 8 4.5 8Z" fill="#FED101"/>
<path d="M14 14H3V15H14V14Z" fill="#FF9944"/>
<path d="M6.50002 12C6.22387 12 6 11.7762 6 11.5V8.50002C6 8.22388 6.22387 8 6.50002 8C6.77616 8 7.00003 8.22388 7.00003 8.50002V11.5C7.00003 11.7762 6.77616 12 6.50002 12Z" fill="#FF9944"/>
<path d="M8.50002 15C8.22388 15 8 14.7762 8 14.5V11.5C8 11.2239 8.22388 11 8.50002 11C8.77617 11 9.00005 11.2239 9.00005 11.5V14.5C9.00005 14.7762 8.77617 15 8.50002 15Z" fill="#FF9944"/>
<path d="M10.5 12C10.2239 12 10 11.7762 10 11.5V8.50002C10 8.22388 10.2239 8 10.5 8C10.7762 8 11 8.22388 11 8.50002V11.5C11 11.7762 10.7762 12 10.5 12Z" fill="#FF9944"/>
<path d="M8.50002 21C8.22388 21 8 20.7762 8 20.5V17.5C8 17.2239 8.22388 17 8.50002 17C8.77617 17 9.00005 17.2239 9.00005 17.5V20.5C9.00005 20.7762 8.77617 21 8.50002 21Z" fill="#FF9944"/>
<path d="M6.50002 18C6.22387 18 6 17.7762 6 17.5V14.5C6 14.2239 6.22387 14 6.50002 14C6.77616 14 7.00003 14.2239 7.00003 14.5V17.5C7.00003 17.7762 6.77616 18 6.50002 18Z" fill="#FF9944"/>
<path d="M10.5 18C10.2239 18 10 17.7762 10 17.5V14.5C10 14.2239 10.2239 14 10.5 14C10.7762 14 11 14.2239 11 14.5V17.5C11 17.7762 10.7762 18 10.5 18Z" fill="#FF9944"/>
</svg>
