<svg width="24" height="24" viewBox="0 0 24 24" fill="none" xmlns="http://www.w3.org/2000/svg">
<g clip-path="url(#clip0)">
<path opacity="0.4" d="M7.66689 10.7723C9.52361 8.93719 10.3224 6.99469 11.8444 5.47031C12.5381 4.77469 12.7903 3.72469 13.0346 2.70891C13.2431 1.84172 13.6791 0 14.625 0C15.75 0 18 0.375 18 3.81797C18 5.80641 16.7813 6.92156 16.44 8.25H21.2086C22.7738 8.25 23.9925 9.55078 24 10.9734C24.0038 11.8144 23.6461 12.7195 23.0888 13.2792L23.0836 13.2848C23.5449 14.3784 23.4699 15.9098 22.6472 17.0095C23.0541 18.2236 22.6439 19.7147 21.8794 20.5139C22.081 21.3389 21.9844 22.0411 21.5911 22.6059C20.6344 23.9808 18.2635 24 16.2581 24H16.125C13.8619 24 12.0094 23.175 10.5206 22.5127C9.77065 22.1803 8.79471 21.7683 8.05268 21.7547C7.90529 21.752 7.76485 21.6915 7.66158 21.5863C7.55831 21.4811 7.50046 21.3396 7.50049 21.1922V11.1717C7.50049 11.0975 7.5152 11.0239 7.54376 10.9554C7.57232 10.8868 7.61417 10.8246 7.66689 10.7723V10.7723Z" fill="#9A9B9B"/>
<path d="M4.875 10.5H1.125C0.826631 10.5 0.540483 10.6185 0.329505 10.8295C0.118526 11.0405 0 11.3266 0 11.625L0 22.875C0 23.1734 0.118526 23.4595 0.329505 23.6705C0.540483 23.8815 0.826631 24 1.125 24H4.875C5.17337 24 5.45952 23.8815 5.6705 23.6705C5.88147 23.4595 6 23.1734 6 22.875V11.625C6 11.3266 5.88147 11.0405 5.6705 10.8295C5.45952 10.6185 5.17337 10.5 4.875 10.5ZM3 22.125C2.7775 22.125 2.55999 22.059 2.37498 21.9354C2.18998 21.8118 2.04578 21.6361 1.96064 21.4305C1.87549 21.225 1.85321 20.9988 1.89662 20.7805C1.94003 20.5623 2.04717 20.3618 2.2045 20.2045C2.36184 20.0472 2.56229 19.94 2.78052 19.8966C2.99875 19.8532 3.22495 19.8755 3.43052 19.9606C3.63609 20.0458 3.81179 20.19 3.9354 20.375C4.05902 20.56 4.125 20.7775 4.125 21C4.125 21.2984 4.00647 21.5845 3.7955 21.7955C3.58452 22.0065 3.29837 22.125 3 22.125V22.125Z" fill="#0C0E16" fill-opacity="0.5"/>
</g>
<defs>
<clipPath id="clip0">
<rect width="24" height="24" fill="white"/>
</clipPath>
</defs>
</svg>
