<svg width="24" height="24" viewBox="0 0 24 24" fill="none" xmlns="http://www.w3.org/2000/svg">
<path opacity="0.4" d="M0.62788 18.8176C0.225844 19.2197 0 19.765 0 20.3335C0 20.9021 0.225844 21.4474 0.62788 21.8495L2.14425 23.3654C2.54649 23.7673 3.09192 23.9931 3.66063 23.9931C4.22933 23.9931 4.77476 23.7673 5.177 23.3654L12 16.5444L7.45088 11.9966L0.62788 18.8176ZM23.3721 2.14364L21.8557 0.627699C21.4535 0.225779 20.9081 0 20.3394 0C19.7707 0 19.2252 0.225779 18.823 0.627699L12 7.44874L16.5491 11.9966L23.3721 5.17551C23.7742 4.77339 24 4.22812 24 3.65958C24 3.09103 23.7742 2.54576 23.3721 2.14364Z" fill="black"/>
<path d="M23.3721 18.8176C23.7742 19.2197 24 19.765 24 20.3335C24 20.9021 23.7742 21.4474 23.3721 21.8495L21.8557 23.3654C21.4535 23.7673 20.9081 23.9931 20.3394 23.9931C19.7707 23.9931 19.2252 23.7673 18.823 23.3654L0.62788 5.17551C0.225844 4.77339 0 4.22812 0 3.65958C0 3.09103 0.225844 2.54576 0.62788 2.14364L2.14425 0.627699C2.54649 0.225779 3.09192 0 3.66063 0C4.22933 0 4.77476 0.225779 5.177 0.627699L23.3721 18.8176Z" fill="black"/>
</svg>
